<svg xmlns="http://www.w3.org/2000/svg" viewBox="0 0 64 64" id="led-tv">
  <path fill="#fffaf0" stroke="#5f363a" stroke-linecap="round" stroke-linejoin="round" stroke-width="3" d="M38.9,49l1.28,9.46a1,1,0,0,1-1,1.15H24.81a1,1,0,0,1-1-1.15L25.1,49Z"></path>
  <rect width="61" height="44.67" x="1.5" y="4.36" fill="#ced8da" stroke="#5f363a" stroke-linecap="round" stroke-linejoin="round" stroke-width="3" rx="4"></rect>
  <path fill="#fffaf0" stroke="#5f363a" stroke-linecap="round" stroke-linejoin="round" stroke-width="3" d="M1.5,38.53h61a0,0,0,0,1,0,0V45a4,4,0,0,1-4,4H5.5a4,4,0,0,1-4-4v-6.5A0,0,0,0,1,1.5,38.53Z"></path>
  <circle cx="32" cy="43.78" r="1.79" fill="#5f363a"></circle>
</svg>
