<svg xmlns="http://www.w3.org/2000/svg" enable-background="new -360.158 -1489.347 3000 3000" viewBox="-360.158 -1489.347 3000 3000" id="flash-sale-promotion">
  <path fill="#DCF4E6" d="M2255.128,539.905c-1.95,4.01-4.009,7.911-6.068,11.811c-100.021,191.05-326.072,279.259-553.314,220.308
			c-84.309-21.889-157.021-64.911-242.739-98.288c-7.369-2.926-14.847-5.634-22.432-8.343
			c-121.37-43.564-271.564-63.72-514.844,19.938C537.426,815.37,217.097,861.643,56.066,618.687c-2.059-2.926-4.01-5.96-5.852-9.102
			c-21.781-34.461-40.42-74.556-55.7-120.828c-44.43-133.832-0.975-287.061,94.82-434.33c3.035-4.658,6.177-9.427,9.32-14.087
			c68.595-101.647,161.681-200.043,267.445-286.844c11.379-9.32,22.324-19.072,32.943-29.259c3.252-2.818,6.502-5.96,9.646-9.211
			c59.6-58.518,106.198-126.68,145.859-197.117c1.841-3.251,3.685-6.503,5.526-9.753
			c73.147-132.422,123.322-271.997,190.832-372.561c5.527-8.235,11.163-16.147,17.122-23.84c2.493-3.36,5.093-6.72,7.802-9.971
			c21.131-26.442,44.539-49.957,69.896-70.329c2.926-2.492,5.96-4.876,8.994-7.151c68.705-52.882,150.629-84.309,240.464-93.953
			c4.551-0.433,8.995-0.867,13.546-1.3c139.25-11.379,296.38,29.041,451.56,123.21c4.117,2.385,8.126,4.878,12.245,7.478
			c101.647,63.394,202.21,150.087,296.055,260.295c2.926,3.359,5.852,6.827,8.777,10.294
			c84.201,100.672,162.981,220.524,232.011,359.99c1.734,3.359,3.36,6.719,4.985,10.078c23.624,48.332,46.056,98.938,67.295,151.929
			c1.301,3.36,2.601,6.719,4.009,10.078c16.039,40.962,31.427,83.225,45.839,127.005c1.192,3.359,2.275,6.827,3.359,10.185
			c15.822,48.439,30.668,98.396,44.214,150.195C2319.606,304.101,2305.411,436.308,2255.128,539.905z"></path>
  <path fill="#FFF" d="M2234.864-0.406c-99.371,32.835-210.338,54.508-320.22,54.508c-101.54,0-202.102-18.638-291.612-64.26
				c-165.907-84.742-274.166-249.35-321.846-489.488c-60.251-303.532-138.275-474.099-206.003-570.003
				c4.551-0.433,8.995-0.867,13.546-1.3c67.511,98.503,143.693,270.047,203.078,569.245
				c46.922,236.67,153.337,398.785,316.21,481.901c183.139,93.519,414.608,71.305,603.489,9.212
				C2232.698-7.233,2233.781-3.765,2234.864-0.406z"></path>
  <path fill="#FFF" d="M2185.666-137.597c-76.722,19.722-145.318,29.584-206.111,29.584c-81.49,0-149.003-17.665-203.402-52.775
				c-112.482-72.713-172.193-220.307-182.487-451.234c-6.069-134.156-18.424-245.123-33.377-335.717
				c4.117,2.385,8.126,4.878,12.245,7.478c14.304,89.293,26.116,197.768,31.968,327.699
				c10.187,227.243,68.271,372.019,177.611,442.673c92.22,59.601,223.885,67.078,399.545,22.215
				C2182.958-144.315,2184.258-140.956,2185.666-137.597z"></path>
  <path fill="#FFF" d="M2114.362-299.604c-40.637 9.645-76.938 14.522-109.016 14.522-60.793 0-106.089-17.338-135.348-52.015-64.478-76.182-40.205-220.525-1.41-342.869 2.926 3.359 5.852 6.827 8.777 10.294-36.736 118.443-58.843 255.093.867 325.638 41.72 49.198 119.31 60.685 231.144 34.352C2111.111-306.323 2112.738-302.963 2114.362-299.604zM2255.128 539.905c-1.95 4.01-4.009 7.911-6.068 11.811-43.887 5.636-92.436 9.104-145.426 9.104-226.159 0-533.375-63.394-905.395-292.479C717.204-27.822 344.643-15.794 116.859 46.408c-9.32 2.602-18.531 5.202-27.525 8.019 3.035-4.658 6.177-9.427 9.32-14.087 5.093-1.517 10.186-2.926 15.279-4.335 229.952-62.852 605.655-75.098 1089.941 223.017C1665.62 543.265 2026.37 571.115 2255.128 539.905zM1453.007 673.737c-7.369-2.926-14.847-5.634-22.432-8.343C1288.617 514.332 1076.978 369.88 790.352 378.44c-318.162 9.428-564.369 123.97-734.286 240.247-2.059-2.926-4.01-5.96-5.852-9.102C221.54 492.441 469.696 377.14 790.025 367.604 1090.524 358.826 1309.53 515.415 1453.007 673.737zM1065.708-406.018c-10.294 112.7-64.585 186.388-157.022 213.046-33.376 9.645-70.003 13.872-108.907 13.872-121.477 0-265.278-42.154-400.736-96.663 3.252-2.818 6.502-5.96 9.646-9.211 176.093 70.654 364.866 119.635 496.963 81.598 110.968-32.076 142.393-128.413 149.328-203.619 15.714-173.385-82.358-417.207-209.254-561.551 2.926-2.492 5.96-4.876 8.994-7.151C984.434-829.62 1082.071-585.255 1065.708-406.018z"></path>
  <path fill="#FFF" d="M848.543-388.571c-12.679,6.394-27.634,9.32-44.213,9.32c-67.079,0-162.007-47.574-249.783-102.839
				c1.841-3.251,3.685-6.503,5.526-9.753c107.067,67.836,223.992,123.861,283.594,93.628c95.145-48.331-16.58-348.829-75.64-490.029
				c2.493-3.36,5.093-6.72,7.802-9.971C835.431-757.014,953.982-442.103,848.543-388.571z"></path>
  <g>
    <path fill="#93E5B6" d="M1027.256,1051.962h1265.789c-33.409-60.291-104.401-41.598-180.828-43.207
			c-14.284-45.074-53.868-44.127-139.14-30.247c108.028-98.517,74.325-195.305-114.076-132.219
			c215.191-292.957-118.399-359.911-167.661-365.77c-62.073-7.403-347.417,38.226-196.177,343.295
			c-183.217-76.042-233.34,13.84-95.066,171.987C1268.001,1001.993,1109.721,1031.008,1027.256,1051.962z"></path>
    <path fill="#93E5B6" d="M98.918,1051.962h1000.895c-64.927-15.081-199.457-32.94-259.977-34.214
			c-11.312-35.693-42.657-34.943-110.181-23.952c85.545-78.013,58.855-154.656-90.334-104.701
			c170.405-231.984-93.757-285.003-132.766-289.643c-49.154-5.863-275.11,30.27-155.347,271.846
			c-145.084-60.215-184.776,10.959-75.28,136.191C171.325,1012.393,134.209,1024.667,98.918,1051.962z"></path>
  </g>
  <g>
    <path fill="#2F627C" d="M635.706,1068.047c-52.158,0-94.59-42.432-94.59-94.589V-980.733c0-52.157,42.432-94.595,94.59-94.595
			h982.782c52.158,0,94.596,42.438,94.596,94.595V973.458c0,52.157-42.438,94.589-94.596,94.589H635.706z"></path>
    <path fill="#CDEEFF" d="M635.706,998.96c-14.062,0-25.503-11.441-25.503-25.502V-980.733c0-14.067,11.441-25.508,25.503-25.508
			h982.782c14.067,0,25.509,11.441,25.509,25.508V973.458c0,14.061-11.441,25.502-25.509,25.502H635.706z"></path>
    <g>
      <path fill="#097C3A" d="M1479.114-876.973l117.675,73.955l1.229,2.85v0.08l1.841,4.188
				c14.323,31.495,70.291,58.295,124.624,58.295c29.365,0,50.952-7.706,61.901-19.767v-42.796l-1.74-2.765l-163.375-74.04H1479.114z
				"></path>
      <path fill="#FFC439" d="M1499.351-737.617h52.045c40.615,0,64.814-36.545,54.464-60.561l-126.746-78.808h-140.789l76.04,78.331
				C1420.577-774.638,1458.737-737.617,1499.351-737.617z"></path>
      <path fill="#097C3A" d="M1197.523-876.956l24.065,80.251c2.744,31.839,49.75,59.126,104.664,59.126
				c55.048,0,94.89-30.666,86.656-62.505l-74.577-76.871H1197.523z"></path>
      <path fill="#FFC439" d="M1101.097-737.617h52.047c40.614,0,75.094-25.588,73.025-49.605l-28.648-89.765h-140.799l-27.455,84.764
				C1027.197-768.207,1060.483-737.617,1101.097-737.617z"></path>
      <path fill="#097C3A" d="M915.91-876.956l-82.434,85.209c-8.233,31.84,39.595,54.168,94.511,54.168
				c55.049,0,99.248-24.948,101.993-56.789l26.739-82.588H915.91z"></path>
      <path fill="#FFC439" d="M702.842-737.617h52.046c40.616,0,72.378-28.925,78.589-52.94l82.44-86.43H775.132l-137.493,86.379
				C627.287-766.59,662.229-737.617,702.842-737.617z"></path>
      <path fill="#097C3A" d="M467.815-799.92v42.464c10.844,12.064,32.537,19.851,61.902,19.851
				c55.047,0,111.322-27.304,125.032-59.13l1.433-3.265v-0.088l1.226-2.931h0.103l117.578-73.955H627.501l-157.845,74.04
				L467.815-799.92z"></path>
      <path fill="#009444" d="M1598.018-802.933v118.932c0 42.548 42.257 77.137 94.234 77.137 52.079 0 94.132-34.588 94.132-77.137v-116.167l-1.74-2.765H1598.018zM1221.309-802.976v118.999c0 42.522 42.237 77.096 94.185 77.096 52.071 0 94.183-34.575 94.183-77.096v-118.999H1221.309zM844.577-802.976v118.999c0 42.522 42.24 77.096 94.186 77.096 52.073 0 94.185-34.575 94.185-77.096v-118.999H844.577z"></path>
      <path fill="#DBA12C" d="M1409.676-803.02v102.757c0 51.55 42.166 93.338 94.181 93.338l0 0c52.014 0 94.18-41.788 94.18-93.338V-803.02H1409.676zM1032.948-700.262c0 51.55 42.166 93.338 94.181 93.338l0 0c52.012 0 94.18-41.788 94.18-93.338V-803.02h-188.362V-700.262zM656.215-700.262c0 51.55 42.167 93.338 94.181 93.338 52.017 0 94.183-41.788 94.183-93.338V-803.02H656.215V-700.262z"></path>
      <path fill="#009444" d="M467.815-799.92v115.919c0,42.548,42.257,77.137,94.234,77.137c52.08,0,94.133-34.588,94.133-77.137
				v-118.932H469.657L467.815-799.92z"></path>
      <rect width="142.046" height="113.273" x="627.846" y="-990.246" fill="#009444"></rect>
      <rect width="142.045" height="113.273" x="769.891" y="-990.246" fill="#DBA12C"></rect>
      <rect width="142.046" height="113.273" x="911.937" y="-990.246" fill="#009444"></rect>
      <rect width="142.046" height="113.273" x="1053.982" y="-990.246" fill="#DBA12C"></rect>
      <rect width="142.045" height="113.273" x="1196.028" y="-990.246" fill="#009444"></rect>
      <rect width="142.046" height="113.273" x="1338.073" y="-990.246" fill="#DBA12C"></rect>
      <rect width="142.045" height="113.273" x="1480.119" y="-990.246" fill="#009444"></rect>
    </g>
  </g>
  <g>
    <rect width="391.034" height="391.034" x="1357.668" y="700.983" fill="#FFC439" transform="rotate(1.403 1554.074 895.562)"></rect>
    <path fill="#CDEEFF" d="M1612.574,1093.04l2.477-104.02l-11.716,8.527l-6.56-8.962l-11.41-4.334l-12.354,13.926
			l-6.489-19.119l-17.999,32.332l-10.559-27.594l-7.72,11.332l-9.076-17.15c0,0-5.125,80.24-8.167,112.691
			C1546.159,1093.086,1579.433,1090.393,1612.574,1093.04z" opacity=".5"></path>
    <polygon fill="#DBA12C" points="1362.377 696.384 1459.563 682.543 1808.855 690.86 1753.301 705.693"></polygon>
    <polygon fill="#DBA12C" points="1808.875 690.835 1799.832 1070.6 1788.949 1075.661 1767.965 1085.471 1743.966 1096.635 1753.275 705.724"></polygon>
    <path fill="#CDEEFF" d="M1516.038,700.044l-2.788,117.108l11.719-8.527l6.56,8.963l11.409,4.334l12.355-13.929
			l6.485,19.119l21.807-62.469l6.753,57.73l7.72-11.329l9.076,17.147c0,0,7.558-118.348,9.767-125.745l26.739-13.588l-27.158,2.739
			l-0.597-3.4l-57.708-1.374L1516.038,700.044z" opacity=".5"></path>
    <polygon fill="#CDEEFF" points="1743.987 700.316 1771.645 700.607 1771.682 758.77 1776.455 751.432 1778.154 753.844 1782.45 748.956 1786.295 752.006 1791.98 746.882 1793.215 695.028 1765.525 691.684 1767.81 693.432 1763.431 694.341 1760.056 698.074" opacity=".5"></polygon>
    <polygon fill="#CDEEFF" points="1788.949 1075.661 1767.965 1085.471 1769.861 1049.463 1774.286 1057.025 1777.133 1043.541 1781.58 1047.472 1782.721 1037.578 1788.689 1026.568" opacity=".5"></polygon>
    <path fill="#CDEEFF" d="M1441.052,685.177l31.674,1.106l-7.684,2.584l2.505,1.472c0,0-8.944,2.327-8.182,2.345
			c0.76,0.018,6.053,1.809,5.295,1.591c-0.758-0.213-12.575,0.039-12.575,0.039l-0.036,1.494l-48.714-5.257L1441.052,685.177z" opacity=".5"></path>
    <g>
      <rect width="311.851" height="311.851" x="509.692" y="750.977" fill="#FFC439" transform="rotate(173.477 665.612 906.933)"></rect>
      <path fill="#CDEEFF" d="M632.534,1067.266l-9.423-82.442l9.917,5.933l4.568-7.589l8.751-4.26l10.811,10.176
			l3.783-15.651l16.613,24.39l6.409-22.674l6.944,8.448l5.979-14.273c0,0,9.822,63.365,14.565,88.921
			C685.289,1062.541,658.667,1062.788,632.534,1067.266z" opacity=".5"></path>
      <polygon fill="#DBA12C" points="802.827 734.279 724.643 730.251 447.805 761.894 492.994 769.693"></polygon>
      <polygon fill="#DBA12C" points="447.788 761.876 482.192 1062.865 491.199 1066.104 508.568 1072.392 528.431 1079.539 493.017 769.715"></polygon>
      <path fill="#CDEEFF" d="M681.04,748.199l10.609,92.816l-9.92-5.933l-4.568,7.589l-8.751,4.26l-10.811-10.178
			l-3.782,15.65l-21.798-48.054l-1.226,46.338l-6.945-8.445l-5.98,14.27c0,0-14.486-93.458-16.772-99.176l-22.211-8.876
			l21.767,0.229l0.231-2.742l45.737-5.228L681.04,748.199z" opacity=".5"></path>
      <polygon fill="#CDEEFF" points="500.006 764.755 478.058 766.968 482.198 813.168 477.882 807.683 476.705 809.72 472.942 806.146 470.107 808.844 465.224 805.18 460.527 764.083 482.28 759.442 480.59 760.995 484.134 761.403 487.082 764.126" opacity=".5"></polygon>
      <polygon fill="#CDEEFF" points="491.199 1066.104 508.568 1072.392 504.482 1043.928 501.509 1050.251 498.281 1039.745 495.03 1043.186 493.415 1035.41 487.885 1027.092" opacity=".5"></polygon>
      <path fill="#CDEEFF" d="M739.534,731.016l-25.078,3.148l6.289,1.502l-1.885,1.349c0,0,7.271,1.207,6.667,1.276
			c-0.602,0.069-4.678,1.871-4.092,1.644c0.587-0.224,9.992-0.87,9.992-0.87l0.135,1.184l38.316-7.667L739.534,731.016z" opacity=".5"></path>
    </g>
  </g>
  <g>
    <path fill="#FFC439" d="M739.086,213.227l-82.321,23.529l-1.165,38.041l44.868,157.098l11.159-3.145l82.289-23.53l11.133-3.189
				L760.136,244.96L739.086,213.227z M705.354,251.113c-4.827,1.382-9.846-1.454-11.245-6.26c-1.372-4.862,1.395-9.93,6.274-11.323
				c4.804-1.369,9.913,1.415,11.316,6.279C713.041,244.669,710.233,249.721,705.354,251.113z"></path>
    <path fill="#DBA12C" d="M712.122,295.815l-1.851-6.45l11.172-3.172l1.895,6.424c10.267-0.737,17.382,5.287,20.722,17.106
					l0.803,2.71l-12.967,3.722l-1.053-3.597c-1.761-6.244-4.936-7.91-9.262-6.641c-4.352,1.225-6.162,4.306-4.41,10.535
					c5.122,17.892,32.161,11.117,39.249,36.068c3.344,11.777,0.411,20.855-8.716,25.596l1.831,6.362l-11.209,3.214l-1.839-6.378
					c-10.4,0.815-17.509-5.352-20.88-17.173l-1.667-5.981l12.887-3.655l1.943,6.814c1.805,6.217,5.176,7.709,9.504,6.44
					c4.374-1.238,6.488-4.256,4.705-10.488c-5.116-17.935-32.147-11.145-39.222-36.023
					C700.393,309.541,703.126,300.679,712.122,295.815z"></path>
    <path fill="#FFC439" d="M1581.467,418.244l-82.974-21.11l-20.157,32.283l-40.315,158.327l11.224,2.9l82.947,21.093l11.224,2.849
				l40.264-158.327L1581.467,418.244z M1533.249,434c-4.866-1.236-7.774-6.213-6.564-11.07c1.262-4.892,6.205-7.878,11.122-6.625
				c4.84,1.235,7.853,6.212,6.617,11.121C1543.135,432.301,1538.165,435.252,1533.249,434z"></path>
    <path fill="#DBA12C" d="M1516.593,476.032l1.648-6.505l11.25,2.883l-1.596,6.505c9.242,4.531,12.357,13.319,9.294,25.212
					l-0.67,2.747l-13.078-3.313l0.901-3.638c1.622-6.281-0.283-9.32-4.66-10.401c-4.376-1.132-7.491,0.618-9.114,6.883
					c-4.582,18.037,22.193,25.795,15.756,50.922c-3.038,11.859-10.143,18.227-20.416,17.729l-1.622,6.419l-11.303-2.866l1.622-6.436
					c-9.397-4.531-12.434-13.439-9.397-25.35l1.571-6.007l12.974,3.329l-1.75,6.866c-1.571,6.281,0.592,9.267,4.97,10.349
					c4.402,1.132,7.748-0.412,9.345-6.694c4.608-18.072-22.166-25.813-15.756-50.871
					C1499.55,481.987,1506.371,475.706,1516.593,476.032z"></path>
    <path fill="#F2CD33" d="M419.917-747.783l-38.921,200.409c0,0,126.065,63.778,130.659,59.163
			c4.594-4.615,84.172-194.124,84.172-194.124L419.917-747.783z"></path>
    <path fill="#DBA12C" d="M484.44-659.36c8.764,3.809,12.16,11.646,5.904,20.993c-6.164,9.388-15.963,11.492-24.728,7.682
				c-8.857-3.849-12.252-11.686-6.089-21.074C465.784-661.106,475.675-663.169,484.44-659.36z M513.472-645.648l15.223,6.616
				l-75.282,44.506l-15.223-6.615L513.472-645.648z M470.508-646.987c-2.583,3.923-2.132,6.422,0.635,7.625
				c2.768,1.203,5.732,0.188,8.314-3.736c2.583-3.923,2.041-6.462-0.727-7.665C475.961-651.966,473.09-650.91,470.508-646.987z
				 M501.453-609.408c8.765,3.809,12.068,11.606,5.812,20.954c-6.164,9.387-15.963,11.491-24.728,7.682
				c-8.765-3.809-12.16-11.645-5.904-20.993C482.797-611.153,492.688-613.218,501.453-609.408z M487.428-597.075
				c-2.583,3.924-2.132,6.422,0.727,7.665c2.676,1.163,5.64,0.148,8.223-3.775c2.582-3.924,2.04-6.462-0.635-7.625
				C492.974-602.014,490.011-600.999,487.428-597.075z"></path>
    <path fill="#F2CD33" d="M1767.878-80.61l58.248,140.981c0,0,104.861-12.14,105.825-16.909s-27.445-155.694-27.445-155.694
			L1767.878-80.61z"></path>
    <path fill="#DBA12C" d="M1844.515-52.045c7.033-1.234,12.377,2.255,12.325,10.658c0.022,8.391-5.222,13.737-12.255,14.971
				c-7.107,1.247-12.451-2.242-12.473-10.632C1832.164-45.452,1837.481-50.811,1844.515-52.045z M1868.262-55.448l12.216-2.143
				l-28.614,58.746l-12.216,2.143L1868.262-55.448z M1840.922-38.594c0.005,3.51,1.315,4.883,3.536,4.493
				c2.221-0.39,3.651-2.243,3.646-5.753c-0.006-3.51-1.389-4.87-3.609-4.48C1842.273-43.944,1840.917-42.104,1840.922-38.594z
				 M1875.689-27.904c7.033-1.234,12.303,2.267,12.251,10.671c0.022,8.391-5.222,13.737-12.255,14.971
				c-7.033,1.234-12.377-2.255-12.325-10.658C1863.339-21.312,1868.656-26.671,1875.689-27.904z M1872.022-14.44
				c0.005,3.51,1.315,4.883,3.609,4.48c2.147-0.376,3.577-2.229,3.572-5.739c-0.006-3.51-1.389-4.87-3.536-4.493
				C1873.447-19.803,1872.017-17.95,1872.022-14.44z"></path>
    <g>
      <path fill="#DBA12C" d="M351.37,474.573c15.876,27.92,3.577,59.02-27.469,69.463s-69.084-3.725-84.961-31.646
			c-15.876-27.921-3.577-59.019,27.469-69.463C297.455,432.485,335.493,446.653,351.37,474.573z"></path>
      <path fill="#F2CD33" d="M355.818,460.895c15.876,27.92,3.577,59.019-27.469,69.463c-31.046,10.443-69.085-3.725-84.961-31.646
			c-15.876-27.92-3.578-59.02,27.469-69.463C301.904,418.806,339.942,432.974,355.818,460.895z"></path>
      <path fill="#DBA12C" d="M308.456,499.656c-4.231,0.997-9.596,0.822-13.983-0.67l0.801-5.784
				c4.349,1.153,8.293,1.594,11.859,0.394c4.288-1.442,5.319-4.051,3.497-7.255c-4.455-7.835-21.763-0.67-28.107-11.827
				c-3.137-5.518-1.536-10.723,3.864-13.67l-3.443-6.055l5.279-1.775l3.376,5.936c4.492-0.947,8.441-0.082,12.198,1.409
				l-1.632,5.286c-3.589-1.196-6.276-1.637-9.443-0.571c-3.565,1.199-4.796,3.594-3.041,6.679
				c4.05,7.123,21.189-0.341,28.005,11.648c3.205,5.637,1.872,11.036-4.053,14.301l3.476,6.113l-5.279,1.776L308.456,499.656z"></path>
    </g>
    <g>
      <path fill="#DBA12C" d="M1946.071,771.024c28.966,13.876,36.605,46.435,17.062,72.722c-19.543,26.287-58.867,36.348-87.834,22.472
			c-28.966-13.876-36.605-46.435-17.062-72.722C1877.78,767.209,1917.105,757.148,1946.071,771.024z"></path>
      <path fill="#F2CD33" d="M1941.922,757.252c28.966,13.876,36.605,46.435,17.062,72.722c-19.543,26.287-58.867,36.349-87.834,22.472
			c-28.966-13.876-36.605-46.435-17.062-72.722C1873.631,753.437,1912.956,743.376,1941.922,757.252z"></path>
      <path fill="#DBA12C" d="M1925.133,816.104c-2.906,3.232-7.412,6.148-11.867,7.426l-2.641-5.207c4.23-1.534,7.72-3.421,9.965-6.44
				c2.699-3.63,2.058-6.363-1.266-7.955c-8.129-3.894-18.257,11.865-29.832,6.319c-5.725-2.743-7.378-7.931-4.624-13.432
				l-6.282-3.009l3.324-4.47l6.159,2.95c3.15-3.34,6.886-4.882,10.822-5.801l1.675,5.273c-3.63,1.065-6.087,2.236-8.081,4.918
				c-2.245,3.018-1.89,5.687,1.311,7.22c7.389,3.54,17.209-12.366,29.647-6.408c5.848,2.801,7.832,7.996,4.829,14.057l6.342,3.038
				l-3.323,4.469L1925.133,816.104z"></path>
    </g>
    <g>
      <path fill="#2F627C" d="M1433.24-285.606v14.16c0,23.235,15.495,42.07,34.608,42.07h245.236v-56.23H1433.24z" opacity=".5"></path>
      <path fill="#FFC439" d="M1989.287-417.926h-513.378c-21.287,0-40.57,8.455-54.783,22.139l-85.012-7.685l63.919,42.552
			c-2.032,7.006-3.178,14.388-3.178,22.049c0,43.66,35.394,79.056,79.054,79.056h513.378c43.66,0,79.055-35.395,79.055-79.056
			C2068.342-382.531,2032.948-417.926,1989.287-417.926z"></path>
      <path fill="#DBA12C" d="M1496.532-369.53h39.302l-2.062 11.61h-24.597l-2.237 12.987h18.403l-2.063 11.18h-18.407l-4.299 24.597h-14.706L1496.532-369.53zM1558.306-369.53l-8.687 49.194h19.265l-1.979 11.18h-33.97l10.665-60.374H1558.306zM1613.456-319.822h-22.531l-5.504 10.665h-15.395l32.51-60.374h17.027l11.18 60.374h-15.563L1613.456-319.822zM1608.211-353.361l-11.523 22.36h15.049L1608.211-353.361zM1661.393-308.554c-13.501 0-23.393-6.365-21.929-18.663h15.308c-.343 4.212 2.062 7.052 7.052 7.052 4.3 0 7.223-1.891 7.223-5.592 0-9.716-25.801-7.395-25.973-25.284-.172-12.212 9.803-19.352 23.48-19.352 13.245 0 22.188 6.883 21.071 18.063h-15.655c.519-3.785-1.806-6.453-6.19-6.453-4.128 0-6.968 2.15-6.968 5.592 0 9.289 26.06 8.344 26.06 26.144C1684.873-316.38 1675.927-308.554 1661.393-308.554zM1732.891-334.184h-22.878l-4.387 25.028h-14.705l10.665-60.374h14.706l-4.212 23.736h22.874l4.216-23.736h14.705l-10.665 60.374h-14.706L1732.891-334.184zM1797.694-308.554c-13.501 0-23.393-6.365-21.929-18.663h15.308c-.343 4.212 2.062 7.052 7.052 7.052 4.3 0 7.223-1.891 7.223-5.592 0-9.716-25.801-7.395-25.973-25.284-.172-12.212 9.803-19.352 23.48-19.352 13.246 0 22.188 6.883 21.071 18.063h-15.655c.519-3.785-1.806-6.453-6.19-6.453-4.128 0-6.968 2.15-6.968 5.592 0 9.289 26.06 8.344 26.06 26.144C1821.173-316.38 1812.227-308.554 1797.694-308.554zM1866.694-319.822h-22.531l-5.504 10.665h-15.395l32.51-60.374h17.027l11.18 60.374h-15.563L1866.694-319.822zM1861.45-353.361l-11.523 22.36h15.049L1861.45-353.361zM1916.007-369.53l-8.687 49.194h19.265l-1.979 11.18h-33.97l10.665-60.374H1916.007zM1977.263-357.92h-22.272l-2.15 12.556h19.691l-1.979 11.096h-19.691l-2.409 13.501h22.276l-2.066 11.611h-36.982l10.666-60.374h36.981L1977.263-357.92z"></path>
    </g>
  </g>
  <g>
    <polygon fill="#D7A28E" points="987.53 783.205 1018.302 896.683 1062.436 872.606 1050.882 765.882"></polygon>
    <path fill="#FFC439" d="M1062.975,839.412c6.426-6.521,18.655,79.743,12.985,82.983c-5.67,3.241-158.805,31.314-174.007,27.221
					c-15.202-4.094-20.542-32.584,2.387-41.145c22.929-8.56,71.247-24.973,83.362-46.25c0,0,6.478-26.879,9.971-29.852
					c3.492-2.974,7.803,16.039,7.803,16.039S1047.554,855.063,1062.975,839.412z"></path>
    <path fill="#11405C" d="M919.2,903.046c-0.189,0.988,1.825,1.997,4.011,4.185c2.202,2.221,4.424,6.043,6.276,10.834
						c3.642,9.645,5.189,18.502,7.021,18.37c1.652-0.015,3.081-9.514-1.075-20.689c-2.096-5.515-5.744-10.241-9.579-12.173
						C921.975,901.666,919.268,902.33,919.2,903.046z"></path>
    <path fill="#11405C" d="M1078.756 907.543c.643 2.989 2.78 16.359-2.481 18.272-5.261 1.913-178.737 30.407-180.251 28.204-1.515-2.203-3.275-10.998-4.111-12.602C891.076 939.812 1078.756 907.543 1078.756 907.543zM979.746 889.832c3.414-5.345-7.503-14.822-10.078-13.647C967.094 877.36 976.379 895.102 979.746 889.832zM965.536 897.019c3.415-5.344-7.503-14.821-10.077-13.646C952.885 884.547 962.169 902.289 965.536 897.019zM950.55 903.335c3.416-5.345-7.503-14.822-10.077-13.646C937.898 890.864 947.183 908.605 950.55 903.335z"></path>
    <path fill="#DBA12C" d="M1014.847,889.965c1.284,8.207,8.978,13.819,17.185,12.535c8.206-1.285,13.818-8.979,12.534-17.185
					c-1.284-8.206-8.978-13.819-17.185-12.535C1019.174,874.065,1013.562,881.759,1014.847,889.965z"></path>
    <path fill="#2F627C" d="M1235.076,117.709l-210.721,298.394l37.693,387.148l-77.559,8.484c0,0-142.384-383.658-134.114-451.709
			c8.271-68.05,199.921-369.143,199.921-369.143L1235.076,117.709z"></path>
    <path fill="#11405C" d="M970.616,386.449c16.052,14.489,60.783,19.152,44.452,22.659c-16.33,3.507-54.485,3.382-41.84,10.854
			c12.724,7.483,44.643,14.762,43.3,17.489c-1.221,2.422,32.074,302.241,20.828,368.474l24.71-2.684l-37.686-387.117l210.66-298.382
			L1050.298-9.11c0,0-45.314,71.112-92.791,152.119c33.912,3.347,103.433,11.241,103.467,15.129
			c0.042,5.019-36.029,94.864-50.833,113.219c-14.725,18.365,41.726,42.588,40.368,52.511c-1.358,9.923-23.389,71.04-35.992,68.588
			C1001.834,389.992,954.554,372.039,970.616,386.449z"></path>
    <polygon fill="#D7A28E" points="1205.276 928.429 1212.776 1045.766 1260.828 1030.983 1270.81 924.101"></polygon>
    <path fill="#FFC439" d="M1268.909,997.001c7.292-5.535,7.059,81.591,0.984,83.988c-6.075,2.396-161.652,8.281-176.111,2.056
					c-14.46-6.225-15.672-35.186,8.246-40.38c23.918-5.193,74.087-14.528,89.12-33.853c0,0,10.255-25.675,14.137-28.119
					c3.881-2.443,5.429,16.99,5.429,16.99S1251.407,1010.286,1268.909,997.001z"></path>
    <path fill="#11405C" d="M1117.511,1039.421c-0.329,0.951,1.52,2.238,3.371,4.715c1.862,2.513,3.514,6.614,4.662,11.62
						c2.225,10.067,2.489,19.054,4.322,19.185c1.637,0.222,4.41-8.976,1.895-20.63c-1.285-5.758-4.22-10.956-7.74-13.417
						C1120.454,1038.452,1117.68,1038.722,1117.511,1039.421z"></path>
    <path fill="#11405C" d="M1274.783 1066.689c.209 3.05.412 16.588-5.069 17.73-5.481 1.141-181.248 4.533-182.432 2.137-1.184-2.397-1.669-11.353-2.266-13.061C1084.418 1071.786 1274.783 1066.689 1274.783 1066.689zM1179.324 1035c4.143-4.801-5.307-15.742-8.023-14.947C1168.585 1020.848 1175.238 1039.735 1179.324 1035zM1164.232 1040.082c4.144-4.801-5.307-15.742-8.022-14.947C1153.494 1025.929 1160.147 1044.816 1164.232 1040.082zM1148.497 1044.19c4.144-4.801-5.306-15.742-8.022-14.948C1137.759 1030.037 1144.411 1048.924 1148.497 1044.19z"></path>
    <path fill="#DBA12C" d="M1214.045,1040.152c0.097,8.305,6.909,14.96,15.215,14.863c8.306-0.098,14.96-6.91,14.863-15.216
					c-0.098-8.305-6.909-14.96-15.215-14.863C1220.601,1025.034,1213.947,1031.846,1214.045,1040.152z"></path>
    <polygon fill="#2F627C" points="1324.036 88.541 1278.583 956.11 1194.458 954.327 1103.833 187.026 1083.385 55.612"></polygon>
    <path fill="#11405C" d="M1083.418,55.59l12.416,80.064l8.009,51.398l14.267,120.915c40.335-18.176,114.861-49.222,126.904-36.171
			c16.776,18.065,24.659,146.031,9.224,155.404c-15.435,9.371-30.439-0.364-36.936,12.252c-6.567,12.528,64.052,2.942,45.216,17.67
			c-18.917,14.719-57.276,14.323-55.355,25.098c1.832,10.846,35.298-3.821,43.374,22.271c6.514,20.948,5.148,330.581,4.342,451.131
			l23.708,0.496l45.449-867.602L1083.418,55.59z"></path>
    <polygon fill="#D7A28E" points="751.591 -455.29 712.517 -435.288 679.956 -497.193 738.771 -519.115 744.816 -505.561 782.556 -520.493 785.483 -516.093 762.475 -485.091"></polygon>
    <path fill="#D7A28E" d="M943.415-284.852l-108.798,45.274L751.591-455.29l-40.581,11.967c0,0,53.63,290.327,82.257,322.583
		s184.457-50.978,184.457-50.978L943.415-284.852z"></path>
    <path fill="#FFC439" d="M1129.37-380.763l-44.918,4.21l-159.135,82.167l40.682,137.155c0,0,70.512-41.164,94.175-58.206
		C1083.838-232.48,1129.37-380.763,1129.37-380.763z"></path>
    <path fill="#DBA12C" d="M1281.657-338.871c0,0-134.464-50.718-156.018-40.125c-21.553,10.593-209.182,295.291-193.294,354.023
		c15.889,58.731,40.456,93.867,104.795,116.95c64.338,23.082,251.656-12.411,252.039-23.973
		C1289.562,56.444,1259.949-237.076,1281.657-338.871z"></path>
    <path fill="#FFC439" d="M1273.777-233.338c-.143 8.892-.072 17.927 0 27.178-16.636-.644-33.989-1.936-51.773-3.944-28.539-3.083-55.931-7.6-80.384-14.27-24.453-6.597-45.964-15.273-62.888-24.738-13.481-7.171-24.309-15.345-31.48-23.018 2.295-3.658 4.589-7.315 6.956-10.828 7.816 5.091 18.716 10.685 32.914 15.991 16.708 6.525 37.216 12.693 60.521 17.568 23.305 4.949 49.55 8.461 77.373 11.474C1241.867-235.991 1258.216-234.485 1273.777-233.338zM1276-130.581c-.86.144-1.721.216-2.581.359-28.109 3.585-59.302 3.585-91.427.285-32.126-3.512-62.099-9.105-89.348-16.779-27.106-7.673-50.84-18.213-69.126-29.614-9.394-5.881-17.354-11.761-23.95-17.355 2.581-4.516 5.163-8.963 7.744-13.408 7.314 4.302 15.919 8.892 25.671 13.408 17.999 8.392 40.372 16.134 66.186 22.087 25.744 5.807 55.143 10.541 85.691 13.84 30.547 3.155 59.732 3.944 85.977 1.936 1.434-.072 2.797-.216 4.159-.359C1275.283-147.646 1275.641-139.113 1276-130.581zM1280.303-53.638c-3.658.718-7.458 1.361-11.258 2.008-31.409 5.162-66.832 6.812-103.546 3.226-36.642-3.585-70.99-11.831-100.892-22.443-29.974-10.829-55.717-23.235-76.225-36.428-9.681-6.168-17.927-12.692-24.811-19.076 2.295-4.66 4.661-9.463 7.171-14.268 7.672 5.378 16.779 10.9 27.535 16.278 40.515 19.79 101.036 41.517 169.947 48.115 39.654 4.014 77.301 2.15 110.43-2.582C1279.227-70.204 1279.729-61.814 1280.303-53.638zM1286.039 25.598c-14.485 3.729-30.403 6.812-47.398 8.892-30.548 3.801-64.393 4.23-99.458 1.29-34.994-2.939-68.624-9.25-98.024-19.935-29.401-10.469-53.996-25.528-71.708-41.303-15.345-13.48-25.815-27.176-32.125-38.219 1.291-4.159 2.796-8.534 4.518-13.123 8.318 9.25 20.939 22.587 39.798 35.854 17.639 12.406 40.442 24.093 67.763 32.412 27.249 8.46 58.585 13.623 92.216 16.421 53.637 4.875 103.331 2.08 142.698-5.091C1284.892 11.042 1285.465 18.715 1286.039 25.598zM1276.717-304.543c-.645 7.673-1.219 15.847-1.721 24.38-4.302 0-8.748-.142-13.337-.285-19.003-.861-39.942-3.085-61.669-7.386-43.526-8.463-81.173-25.17-105.482-41.304-2.151-1.435-4.231-2.869-6.167-4.303 3.872-5.45 7.529-10.541 10.899-15.129 1.506.644 3.084 1.361 4.733 2.078 25.098 10.828 60.521 23.305 101.466 31.266C1230.824-310.208 1255.277-306.911 1276.717-304.543z"></path>
    <g>
      <polygon fill="#CDEEFF" points="1231.519 113.737 1064.116 230.512 1005.892 221.379 1130.942 77.293"></polygon>
      <polygon fill="#549BEC" points="1005.892 221.379 979.752 190.412 1110.497 62.718 1130.942 77.293"></polygon>
      <path fill="#549BEC" d="M1219.262,38.428c-7.169,45.692,24.06,88.543,69.753,95.714c45.692,7.168,88.546-24.062,95.711-69.752
			c7.171-45.695-24.059-88.546-69.751-95.714C1269.284-38.493,1226.431-7.264,1219.262,38.428z"></path>
      <path fill="#91C4F6" d="M810.664,89.936c217.24-32.009,338.571,22.098,407.537,43.145c47.003,14.372,108.73-36.826,132.18-93.741
			c17.207-41.732,13.858-86.497-30.862-110.782c-143.279-77.812-297.977-287.963-297.977-287.963l-19.842,42.234L810.664,89.936z"></path>
      <path fill="#11405C" d="M674.592,62.762C795.329,98.26,930.524,0.168,976.58-156.309
			c46.057-156.478-14.459-312.06-135.193-347.647c-120.737-35.501-255.932,62.594-301.988,219.07
			C493.343-128.408,553.943,27.267,674.592,62.762z"></path>
      <path fill="#91C4F6" d="M778.502-351.396l219.995,76.481c0,0,14.059,236.599-141.483,297.619L708.231-98.242L778.502-351.396z"></path>
      <path fill="#CDEEFF" d="M645.022-230.331c-9.654,61.538,16.182,118.274,63.224,132.071c3.181,0.935,6.438,1.686,9.64,2.188
			c50.05,7.852,103.599-34.884,122.816-100.179c20.456-69.493-5.701-138.63-58.268-154.112
			c-52.609-15.539-112.05,28.492-132.456,97.993C647.806-244.992,646.166-237.626,645.022-230.331z M677.368-244.31
			c7.55-25.689,21.28-47.075,37.565-61.405c16.279-14.283,35.203-21.445,53.144-18.63c2.07,0.324,4.168,0.797,6.243,1.412
			c37.495,10.998,54.949,64.247,38.946,118.613c-16.009,54.367-59.512,89.658-96.954,78.621
			C678.864-136.686,661.399-189.888,677.368-244.31z"></path>
      <path fill="#2F627C" d="M716.322-125.69c2.683,0.809,5.601,1.402,8.315,1.532c35.173,4.182,73.764-29.791,88.65-80.094
			c15.987-54.332-1.402-107.773-38.974-118.647c-2.015-0.551-4.255-1.111-6.281-1.435c-17.999-2.905-36.716,4.361-53.041,18.542
			c-16.339,14.407-30.061,35.744-37.645,61.456C661.351-189.778,678.762-136.788,716.322-125.69z"></path>
      <path fill="#FFF" d="M680.356,91.859c138.695,40.783,291.819-64.32,341.9-234.661
			c50.173-170.423-21.614-341.662-160.309-382.445c-138.691-40.869-291.816,64.232-341.989,234.656
			C469.79-120.256,541.664,50.989,680.356,91.859z M539.399-284.885c46.056-156.477,181.252-254.571,301.988-219.07
			c120.734,35.587,181.25,191.169,135.193,347.647C930.524,0.168,795.329,98.26,674.592,62.762
			C553.943,27.267,493.343-128.408,539.399-284.885z"></path>
    </g>
    <g>
      <path fill="#FFC439" d="M1183.246-379.595c2.314-0.963,57.402,1.665,60.027,2.886c2.624,1.222,3.777,19.279,4.506,25.009
			c0.73,5.729-17.376,23.014-25.024,24.611c-7.649,1.596-21.447-9.076-25.226-13.775c0,0-12.678,6.799-23.783,4.046
			C1162.64-339.569,1172.561-375.16,1183.246-379.595z"></path>
      <path fill="#11405C" d="M1272.316-436.64
				c9.068-0.398,16.096-8.067,15.703-17.134c-0.167-3.857-1.689-7.529-4.292-10.377c6.676-0.924,12.655-4.998,13.804-12.251
				c1.148-7.256-3.673-13.79-10.713-15.991c0,0,0,0-0.002,0.093c6.121,2.676,10.674,8.741,9.499,15.662
				c-1.021,5.904-5.199,9.134-10.261,10.655c4.167-2.844,6.965-7.29,7.725-12.278c0.652-5.628-2.129-11.101-7.061-13.892
				c3.123-5.482,4.525-12.544,1.786-18.489c-2.247-5.12-7.317-8.421-12.907-8.407c2.933-8.177-1.318-17.183-9.495-20.118
				c-3.827-1.373-8.037-1.212-11.747,0.453c1.707-7.094-2.657-14.227-9.749-15.936c-1.854-0.446-3.783-0.486-5.652-0.118
				c0.167-3.464-1.696-6.71-4.774-8.312c-3.606-1.638-7.714-1.782-11.425-0.402c-1.738-3.163-4.969-5.222-8.573-5.463
				c-4.731-0.162-8.879,3.132-9.796,7.777c-5.989-2.118-12.789-3.569-18.858-1.055c-4.984,2.062-9.054,6.815-8.97,12.338
				c-10.31-2.184-20.441,4.402-22.627,14.712c-0.161,0.757-0.274,1.522-0.343,2.293c-4.77,0.443-8.943,3.397-10.944,7.748
				c-1.487,2.878-2.237,6.081-2.183,9.322c-4.266,0.718-7.593,4.081-8.276,8.353c-0.489,3.951,0.818,7.916,3.561,10.802
				c0.152,1.137,0.047,2.293-0.307,3.383c-1.818,5.561-0.737,11.66,2.885,16.255c-3.721,5.411-2.353,12.816,3.058,16.539
				c0.424,0.292,0.864,0.555,1.321,0.787c-2.087,6.985,1.794,14.355,8.734,16.588c-1.27,5.519-0.063,11.32,3.303,15.876
				c2.617,3.475,7.051,6.22,11.362,5.013c-0.438,3.398,2.81,6.187,6.074,6.789c1.224,0.196,2.464,0.258,3.7,0.188
				c1.592-0.303,3.222-0.331,4.822-0.082c1.508,0.484,2.433,2.045,3.629,3.076c0.796,0.729,1.67,1.372,2.601,1.918
				c7.231,4.125,16.36,2.66,21.939-3.519c4.275,3.926,10.557,3.269,15.598,1.046c1.611-0.772,3.153-1.683,4.611-2.719
				c1.252-1.019,2.788-1.627,4.399-1.741c1.037,0.027,2.089,0.218,3.145,0.209c3.576-0.02,6.228-2.233,8.57-4.676
				C1257.019-411.623,1272.548-422.458,1272.316-436.64z M1133.208-505.377c0.042-4.499,2.91-8.487,7.166-9.955
				c-0.009,0.333-0.014,0.556-0.014,0.556s-1.191,0.86-1.721,1.328c-0.955,0.892-1.772,1.92-2.431,3.053
				c-1.4,2.354-2.069,5.072-1.92,7.809c0.101,1.205,0.345,2.392,0.725,3.541c0.048,0.14,0.086,0.282,0.119,0.428
				c-1.233-2.037-1.873-4.377-1.848-6.758L1133.208-505.377z M1215.807-565.81c-4.222-0.747-8.464,1.226-10.614,4.94l-0.334-0.009
				c1.569-4.094,4.133-7.309,9.191-7.18c3.173,0.212,5.993,2.098,7.398,4.95l0,0c-1.563-1.409-3.492-2.342-5.564-2.699
				L1215.807-565.81z M1245.517-422.126l0.114-0.108c9.051,4.194,19.793,0.468,24.307-8.426c-3.992,9.813-13.228,15.899-24.27,8.483
				L1245.517-422.126z"></path>
      <path fill="#D7A28E" d="M1189.404-359.747
					c12.671,5.679,49.65-8.967,48.872-20.02c-0.721-10.148,3.4-37.226,8.164-58.729l-55.368,21.863
					C1190.183-411.723,1175.261-366.067,1189.404-359.747z"></path>
      <path fill="#D7A28E" d="M1142.78-432.249
					c-6.062,22.658,21.742,42.605,33.971,45.451c3.323,0.769,58.016-15.725,63.236-43.685c3.324-17.818,13.4-57.807-17.653-70.323
					c-8.128-3.275-65.595-17.983-65.993,14.291C1156.024-461.042,1149.852-458.664,1142.78-432.249z"></path>
      <path fill="#11405C" d="M1233.1-478.304c0,0-8.447,52.134-12.148,58.47c-3.7,6.336-10.538,7.107-16.131-3.678
					c-8.963-17.286-53.237-19.4-61.554-13.628c-8.316,5.773-1.887,40.791,27.575,49.498c29.462,8.707,67.412-22.39,67.275-25.988
					c-0.138-3.599-1.885-49.697,5.6-61.448C1251.202-486.829,1233.1-478.304,1233.1-478.304z"></path>
      <path fill="#D7A28E" d="M1237.19-432.91c12.85,10.011,26.556-20.704,14.588-27.321c-3.456-1.912-10.546-3.245-13.078,3.778
					C1235.971-448.874,1234.376-435.102,1237.19-432.91z"></path>
      <path fill="#11405C" d="M1247.869-454.699c-3.176 2.008-9.308 9.241-6.255 15.406 0 0 .321-3.938 2.627-6.148l5.47-1.943-5.22-.84L1247.869-454.699zM1181.123-454.123c2.355 1.179-6.153 9.472-1.458 10.819 4.697 1.346-3.271 2.483-3.882-1.406C1175.175-448.597 1179.035-455.168 1181.123-454.123zM1197.896-459.612c-1.323 2.609-.414 5.727 2.027 6.962 2.441 1.234 5.488.121 6.809-2.491 1.322-2.609.415-5.73-2.026-6.964C1202.265-463.339 1199.216-462.224 1197.896-459.612z"></path>
      <path fill="#FFF" d="M1199.104-460.392c-0.382,0.89-0.091,1.868,0.646,2.185c0.741,0.315,1.65-0.149,2.03-1.038
						c0.38-0.89,0.089-1.869-0.65-2.185C1200.392-461.745,1199.482-461.281,1199.104-460.392z"></path>
      <g>
        <path fill="#11405C" d="M1163.754-466.814c-0.226,2.918,1.801,5.457,4.528,5.666c2.728,0.213,5.121-1.981,5.348-4.898
							c0.227-2.918-1.801-5.454-4.527-5.666C1166.376-471.923,1163.981-469.73,1163.754-466.814z"></path>
        <path fill="#FFF" d="M1164.574-467.992c-0.012,0.966,0.629,1.759,1.432,1.77c0.803,0.011,1.466-0.766,1.479-1.731
						c0.013-0.969-0.629-1.761-1.432-1.772C1165.249-469.738,1164.585-468.962,1164.574-467.992z"></path>
        <path fill="#11405C" d="M1161.988-478.757c-1.041-.167-1.083-2.836-.182-3.151 0 0 11.842-6.567 17.349-.004 0 0 .479 2.58.325 3.296-.243 1.123-1.886 2.943-3.265 1.875C1170.338-481.292 1161.988-478.757 1161.988-478.757zM1215.381-464.923c.995.348 2.302-1.979 1.66-2.685 0 0-7.29-11.411-15.256-8.26 0 0-1.649 2.041-1.855 2.744-.32 1.103.259 3.486 1.98 3.203C1209.243-471.126 1215.381-464.923 1215.381-464.923z"></path>
      </g>
      <path fill="#FFF" d="M1186.182-422.174
				c-15.564,1.36-16.741-4.502-23.191-4.962c-3.528-0.251-5.614,2.616-4.664,5.532c0,0,4.559,13.717,22.674,10.502
				C1192.421-413.124,1189.615-422.472,1186.182-422.174z"></path>
      <path fill="#11405C" d="M1240.583-475.918
				c-13.086,1.679-12.542-1.01-18.873-14.011c-14.035,3.533-26.004-0.104-27.498-10.134c-7.267,8.557-14.504,13.231-26.554,3.742
				c-4.857,6.978-14.511,0.206-14.305-4.225c0.462-9.979,23.357-32.085,73.143-16.249c44.107,14.026,17.126,66.333,10.719,65.544
				C1230.807-452.038,1241.653-469.784,1240.583-475.918z"></path>
    </g>
    <path fill="#D7A28E" d="M1360.271-153.357c0,0,30.279,104.411,28.556,108.267c-1.724,3.856-48.998,20.325-58.239,19.094
		c-9.242-1.231-27.39-2.89-35.007-7.195c-7.617-4.304-19.144-88.061-19.144-88.061L1360.271-153.357z"></path>
    <path fill="#FFC439" d="M1281.657-338.871l35.522,28.371c0,0,72.385,164.082,66.79,171.215
		c-5.594,7.133-113.247,39.779-113.247,39.779s-9.359-125.687-9.376-129.443C1261.329-232.706,1277.677-333.166,1281.657-338.871z"></path>
    <path fill="#D7A28E" d="M1313.927-70.123c0,0-195.151,93.573-196.201,99.037c-1.05,5.464,18.981,48.58,18.981,48.58
		s192.986-41.818,220.991-67.259c28.005-25.44,38.768-44.885,26.575-69.104C1372.081-83.087,1313.927-70.123,1313.927-70.123z"></path>
    <path fill="#C18C7C" d="M1338.323-62.945c-2.297-2.015-48.525,1.609-48.999,5.328c-0.474,3.719,40.323,21.926,41.183,19.21
		c0.86-2.716-18.719-15.374-18.719-15.374S1347.111-55.237,1338.323-62.945z"></path>
    <g>
      <path fill="#D7A28E" d="M1068.916,12.242c-5.536,6.473,1.06,12.097,1.06,12.097l20.164,17.203l-59.783,30.398
			c0,0,0.171,7.32,5.288,7.761c2.342,0.202,33.166-11.694,33.166-11.694l-39.909,20.326c0,0,1.287,7.816,5.828,6.771
			c2.171-0.5,41.57-13.11,41.57-13.11l-37.482,18.201c0,0,5.329,6.781,7.011,6.401c8.672-1.961,38.706-11.849,38.706-11.849
			l-27.876,12.213c0,0,2.099,7.22,8.014,4.802c7.08-2.895,42.781-13.027,52.859-19.591c13.201-8.598,58.51-23.402,58.51-23.402
			s-20.74-47.773-22.168-51.872c-5.765,2.498-26.459,11.137-26.459,11.137C1108.346,25.947,1095.293,17.069,1068.916,12.242z"></path>
      <path fill="#C18C7C" d="M1074.289 64.951c.305.635-3.421 3.066-8.324 5.429-4.902 2.364-9.125 3.765-9.43 3.131-.307-.634 3.421-3.065 8.323-5.429C1069.761 65.719 1073.983 64.317 1074.289 64.951zM1082.618 78.808c.277.648-3.308 2.801-8.007 4.809-4.699 2.008-8.732 3.112-9.009 2.464-.277-.648 3.308-2.801 8.007-4.809C1078.308 79.263 1082.342 78.16 1082.618 78.808zM1091.485 91.105c.295.639-2.591 2.603-6.448 4.385s-7.223 2.709-7.519 2.07c-.295-.64 2.591-2.603 6.449-4.385C1087.823 91.393 1091.19 90.466 1091.485 91.105z"></path>
      <path fill="#C18C7C" d="M1088.256 85.75c.762-.045 1.309 2.149 2.645 4.214 1.292 2.112 2.99 3.428 2.747 4.078-.177.705-3.107.144-4.903-2.716C1086.967 88.458 1087.625 85.712 1088.256 85.75zM1080.02 74.114c.761-.045 1.308 2.15 2.646 4.214 1.29 2.112 2.989 3.428 2.745 4.078-.177.705-3.106.144-4.903-2.716C1078.73 76.823 1079.389 74.076 1080.02 74.114zM1072.049 61.098c.762-.046 1.309 2.149 2.645 4.214 1.292 2.112 2.99 3.428 2.747 4.078-.177.705-3.107.144-4.903-2.716C1070.759 63.806 1071.418 61.06 1072.049 61.098z"></path>
    </g>
    <g>
      <path fill="#D7A28E" d="M729.738-532.406c0,0,1.487-13.005,17.218-5.151c15.732,7.856,12.622,19.214,6.973,19.926
					c-5.651,0.713-9.223,1.591-15.286-5.956c0,0,1.88,8.207-4.337,9.95c-6.216,1.742-11.398-2.048-11.398-2.048
					s3.176,6.943,0.761,9.188c-2.415,2.244-10.73,2.538-16.545-3.512c0,0,0.94,8.523-9.122,7.006
					c-6.728-1.014-8.657-3.028-8.657-3.028l-8.991,5.058c0,0-2.414-17.602,16.418-19.226c0,0,3.428-11.742,15.994-4.804
					C712.766-525.004,715.915-541.502,729.738-532.406z"></path>
      <path fill="#C18C7C" d="M729.764-532.249c-.262.493 2.139 2.109 4.555 4.591 2.464 2.451 3.977 4.852 4.431 4.673.516-.171-.404-3.277-3.111-5.975C732.962-531.693 729.952-532.675 729.764-532.249zM712.62-525.366c-.109.249.491.762 1.4 1.609.915.847 2.15 2.054 3.51 3.418 2.721 2.726 4.968 4.973 5.378 4.652.399-.307-1.239-3.127-4.066-5.964-1.411-1.415-2.87-2.544-4.061-3.176C713.584-525.464 712.713-525.589 712.62-525.366zM696.772-520.2c-.081.271.632.706 1.634 1.519 1.004.826 2.297 2.08 3.632 3.599 2.68 3.03 4.653 5.755 5.107 5.491.437-.235-.869-3.491-3.722-6.723-1.415-1.614-3-2.852-4.315-3.476C697.775-520.409 696.829-520.42 696.772-520.2z"></path>
    </g>
  </g>
</svg>
